<svg xmlns="http://www.w3.org/2000/svg" viewBox="0 0 96 96" width="100%" height="100%">
  <!--
    Ícone Companion: The Artist's Way
    Estilo: Microsoft Design Language 2 (MDL2 / W10M Metro)
    Target: Windows 10 Mobile (Lumia 830 Live Tile)
    Cor: Branco puro (#FFFFFF) com fundo 100% transparente
  -->
  <g fill="#FFFFFF" fill-rule="evenodd">
    
    <!-- 1. Faísca Criativa (Estrela Metro no topo) -->
    <path d="M 48 4 L 50 9 L 55 11 L 50 13 L 48 18 L 46 13 L 41 11 L 46 9 Z" />

    <!-- 2. Pena da Caneta (Morning Pages) com recorte vetorial para a fenda e o furo -->
    <path d="
      M 48 22 
      L 64 58 
      L 48 52 
      L 32 58 
      Z 
      M 47.2 28 
      L 48.8 28 
      L 48.8 43 
      L 47.2 43 
      Z 
      M 45.5 46 
      C 45.5 44.6, 46.6 43.5, 48 43.5 
      C 49.4 43.5, 50.5 44.6, 50.5 46 
      C 50.5 47.4, 49.4 48.5, 48 48.5 
      C 46.6 48.5, 45.5 47.4, 45.5 46 
      Z" />

    <!-- 3. Livro Aberto / Caminho (Base geométrica) -->
    <!-- Página Esquerda -->
    <path d="M 14 66 Q 29 66 44 58 L 44 82 Q 29 90 14 90 Z" />
    <!-- Página Direita -->
    <path d="M 52 58 Q 67 66 82 66 L 82 90 Q 67 90 52 82 Z" />

  </g>
</svg>
